# xmcd
#
# Track frame offsets: 
#        150
#        10845
#        20516
#        31986
#        48914
#        59870
#        71920
#        81377
#        91556
#        102436
#        112196
#        126422
#        139010
#        148710
#        163157
#        174154
#        185310
#        195645
#        205740
#        217626
#        229932
#        242360
#        251781
#        262749
#        272164
#        285406
#        297337
#        308023
#        318435
#
# Disc length: 4415 seconds
#
# Revision: 0
# Processed by: cddbd v1.5.2PL0 Copyright (c) Steve Scherf et al.
# Submitted via: ExactAudioCopy v0.95b4
#
DISCID=a5113d1d
DTITLE=Reno and Smiley - 1959-1963 [CD3]
DYEAR=2006
DGENRE=Bluegrass
TTITLE0=Gettysburg Recalled
TTITLE1=Stonewall Brigade
TTITLE2=V.M.I.'s Gallant Hour
TTITLE3=Battle of Atlanta
TTITLE4=Antietam
TTITLE5=Shiloh
TTITLE6=Jeb's Black Horse Brigade
TTITLE7=Virginia's Heritage
TTITLE8=Confederate Flag
TTITLE9=First Shot
TTITLE10=Lee's Command
TTITLE11=Appomattox
TTITLE12=Are You Waiting Just for Me?
TTITLE13=Family Bible
TTITLE14=Holiday Religion
TTITLE15=You Gotta Be My Baby
TTITLE16=Out Behind the Barn
TTITLE17=Sweetheart, You Done Me Wrong
TTITLE18=Ten Paces
TTITLE19=Corrine, Corrina
TTITLE20=Signed, Sealed and Delivered
TTITLE21=Country Side of Heaven (Where the Bluegrass Music Flows)
TTITLE22=Row Your Boat (alternate version)
TTITLE23=Row Your Boat
TTITLE24=Just About Then
TTITLE25=Greenback Dollar
TTITLE26=Little Red School House
TTITLE27=Everglades
TTITLE28=Garden in the Sky
EXTD=
EXTT0=
EXTT1=
EXTT2=
EXTT3=
EXTT4=
EXTT5=
EXTT6=
EXTT7=
EXTT8=
EXTT9=
EXTT10=
EXTT11=
EXTT12=
EXTT13=
EXTT14=
EXTT15=
EXTT16=
EXTT17=
EXTT18=
EXTT19=
EXTT20=
EXTT21=
EXTT22=
EXTT23=
EXTT24=
EXTT25=
EXTT26=
EXTT27=
EXTT28=
PLAYORDER=
